<?xml version="1.0" encoding="utf-8"?>
<!DOCTYPE svg PUBLIC "-//W3C//DTD SVG 1.0//EN" "http://www.w3.org/TR/2001/REC-SVG-20010904/DTD/svg10.dtd">
<svg version="1.0" xmlns="http://www.w3.org/2000/svg" width="1024px" height="1024px" viewBox="0 0 1024 1024" preserveAspectRatio="xMidYMid meet">
 <g fill="#3157e4">
  <path d="M195.5 1023.3 c-54.4 -2.3 -102.7 -22.5 -137.2 -57.5 -36.4 -36.7 -53.9 -77.7 -57.3 -133.5 -1.3 -23 -1.4 -620.8 0 -641.8 1.2 -17.9 2.4 -26.7 5.5 -40 15.6 -66.1 62.7 -117.8 126.6 -138.9 18.1 -6 38 -9.5 60.9 -10.7 11.7 -0.6 134.1 -0.9 333 -0.7 l314.5 0.4 12.8 2.2 c7 1.2 16.5 3.1 21 4.2 53.1 12.5 99.3 48.4 125.1 97 11.2 21.3 18.6 47 21.8 75.5 1.9 17.3 1.9 644.9 0 663.5 -6.4 63.3 -35.6 113.4 -85.6 146.9 -29.7 19.9 -62.6 30.2 -106.6 33.1 -12.8 0.9 -614.4 1.2 -634.5 0.3z m576.7 -154.9 c49.5 -22.2 85.4 -51.2 107.6 -87 20.8 -33.5 33.3 -74.9 37.2 -122.8 2.2 -28.3 0.5 -88.2 -2.6 -91.7 -0.9 -0.9 -5.4 -2.7 -10.2 -3.8 -51.3 -12.8 -95.4 -30.2 -133.5 -52.7 l-10.7 -6.4 -13.1 7.5 c-39.2 22.7 -80.2 38.6 -132.1 51.6 -4.8 1.1 -9.4 2.9 -10.2 3.8 -2.2 2.4 -4 38.5 -3.2 64.3 3.2 107.7 37.7 175.4 111.6 219.5 15.5 9.2 42.8 22.2 46.7 22.3 1.3 0 6.9 -2.1 12.5 -4.6z m-484.4 -87.9 c23.9 -5 45.8 -17 62.4 -34.3 9.6 -9.9 14.5 -16.8 21.9 -30.7 5.8 -10.9 10 -14.5 19 -16.4 3.3 -0.7 36.9 -1.1 100.6 -1.1 l95.6 0 -0.7 -3.7 c-1.7 -10.1 -3.8 -31.3 -4.4 -44.8 l-0.7 -15 -87.5 -0.5 c-92.9 -0.6 -89.8 -0.5 -101.2 -5.3 -8.6 -3.6 -19.4 -12.6 -25 -20.5 -5.6 -8.2 -7.9 -15.6 -8.5 -27.7 -0.4 -9 -0.1 -12 1.4 -16.5 1 -3 15.3 -28 31.7 -55.5 16.5 -27.5 36 -60.1 43.3 -72.5 7.4 -12.4 15.5 -25.9 18 -30 2.6 -4.3 6.3 -8.8 8.7 -10.6 7 -5.3 9.8 -5.8 31.5 -5 13 0.5 22.8 0.3 29.1 -0.4 39.1 -4.8 75.3 -30.6 92.8 -66.1 8.8 -18 12.4 -32 12.5 -49.4 0.4 -47.2 -30.4 -92 -75.9 -110.2 -32.8 -13.2 -63.6 -11.5 -96.7 5.5 -29.3 14.9 -52.7 44.4 -60.6 76.3 -7.1 28.8 -4.1 51.3 10.6 80.8 7.4 14.7 7.7 15.7 8.1 23.6 0.3 5.5 -0.1 9.9 -1 13.2 -0.9 2.9 -12.4 23.3 -26.8 47.4 -37.1 62.1 -57.1 95.7 -73 122.7 -2.3 4 -5.9 8.6 -7.8 10.2 -7.4 6.1 -8.9 6.4 -32.7 7.1 -19 0.6 -23.5 1.1 -32.5 3.4 -11.6 2.8 -28.9 10.7 -39.1 17.5 -14.3 9.8 -29 26.3 -37.4 42.3 -20.1 38 -17.5 79.2 7.1 116.3 6.1 9.1 20.6 23.7 30.5 30.7 13.2 9.3 35.1 18.1 51.4 20.7 8 1.2 26.2 0.5 35.3 -1.5z m367.1 -251.1 c9.9 -3 28.8 -10.2 38.4 -14.6 l6.7 -3.1 -1.9 -3.1 c-1.6 -2.6 -29.2 -47.8 -56.2 -91.6 -4.2 -6.9 -10.7 -17.4 -14.4 -23.5 -3.7 -6 -7 -11.4 -7.5 -11.8 -0.4 -0.5 -4.9 2.3 -10 6.2 -10.5 8.1 -22.7 15.7 -32.4 20.2 -3.6 1.7 -6.6 3.3 -6.6 3.5 0 0.2 1.7 3.2 3.8 6.7 2.1 3.4 11.2 18.1 20.2 32.7 8.9 14.6 23.7 38.8 32.8 53.8 9.1 14.9 17 27.2 17.6 27.2 0.5 0 4.8 -1.2 9.5 -2.6z"/>
  <path d="M255.5 729.4 c-22.3 -3.5 -42.2 -19.9 -49.5 -40.7 -2.8 -7.9 -3.9 -27.6 -2 -36.9 4.4 -22.4 22.7 -41 46 -46.9 7 -1.8 26.7 -1.8 34 0 10.5 2.5 19.9 8 28.5 16.6 14.2 14.1 17.9 24.4 17.3 47.5 -0.4 12.1 -0.8 15.5 -2.8 20.5 -7 18.1 -22.1 32.5 -39.6 37.6 -6.8 2 -25.3 3.3 -31.9 2.3z"/>
  <path d="M493.2 336.5 c-11.3 -2.5 -20.8 -7.9 -29.8 -16.9 -13.9 -14 -18.8 -26.1 -18.9 -46.1 0 -13.9 1.3 -19.9 6.4 -30.5 5.2 -10.8 17.7 -23.4 28.3 -28.4 9.7 -4.6 18.7 -6.6 30.8 -6.6 12.5 0 21.5 2 31.7 7.1 14.5 7.2 25.5 19.8 31 35.6 2.5 7.1 2.7 9.1 2.8 22.3 0 16.1 -0.9 19.9 -7.4 32.5 -7.5 14.6 -24.1 27.1 -40.8 30.9 -8.7 1.9 -25.3 2 -34.1 0.1z"/>
 </g>
 <g fill="#fefefe">
  <path d="M754.5 875.8 c-6 -2.1 -35.7 -16.8 -44.2 -21.9 -65.8 -39.4 -100.5 -97.6 -109.8 -184.1 -3.5 -32.4 -2.7 -101.7 1.1 -105.9 0.8 -0.9 5.4 -2.7 10.2 -3.8 52.2 -13 91.9 -28.5 132.3 -51.7 8.1 -4.6 15.2 -8.4 15.9 -8.4 0.7 0 6.5 3.1 12.9 6.9 39.2 23.1 82.6 40.3 134.3 53.2 4.8 1.1 9.3 2.9 10.2 3.8 3.2 3.6 4.9 68.6 2.6 97.7 -3.9 47.9 -16.4 89.3 -37.2 122.8 -14.5 23.4 -35.8 44.8 -61.7 62 -19 12.6 -55.3 30.7 -61.3 30.5 -1.3 0 -3.6 -0.5 -5.3 -1.1z m16.1 -36.2 c24.6 -11.7 47 -27.2 63.6 -44.2 10.3 -10.6 14 -15.2 21.5 -26.6 16.1 -24.4 26.4 -54.2 32.5 -93.3 2.2 -14.7 3.6 -60.2 2.3 -78.9 -0.6 -9.3 -0.9 -10.6 -2.5 -10.6 -2.7 0 -24.3 -6.4 -43 -12.7 -26.1 -8.8 -50.7 -19.5 -75.1 -32.6 -9.4 -5 -10.8 -5.5 -12.5 -4.3 -8.9 6.3 -44.8 23 -67.4 31.4 -15.4 5.8 -46.9 15.6 -55.2 17.3 l-5.5 1.1 -0.7 8.2 c-0.9 12.2 -0.7 40.3 0.4 56.1 2.1 28.7 8.2 58.7 16.5 81 14.8 39.8 41.1 71.5 78.2 94.2 11.7 7.1 33.7 18.3 36.1 18.3 0.8 0 5.7 -2 10.8 -4.4z"/>
  <path d="M740.5 799.4 c-24.3 -9.6 -38.5 -16.9 -64.5 -32.9 -3 -1.9 -6.6 -4.7 -7.8 -6.1 -2.3 -2.6 -2.3 -3.2 -1.7 -11.8 1.3 -16 4.2 -34.5 5.9 -37.1 3.1 -4.8 9.7 -8.3 27.8 -15 10.1 -3.7 20.9 -8.1 24 -9.6 3.2 -1.6 7.1 -2.9 8.8 -2.9 2.9 0 3 0.1 3 4.9 0 7.3 2.7 26.5 4.9 35.1 2.6 10.2 6.2 19.4 7.1 18.3 0.4 -0.4 1.5 -7 2.5 -14.5 l1.7 -13.8 -3.1 -3.5 c-2.7 -3.1 -3.1 -4.3 -3.1 -9.3 0 -7.1 1.9 -10.2 6.3 -10.3 l3.2 -0.1 -3.2 -0.8 c-7.8 -1.8 -19 -11.3 -23.5 -20.1 -1.4 -2.5 -3.3 -7.3 -4.4 -10.7 -1.5 -4.9 -2.4 -6.3 -4.6 -7.1 -4.5 -1.6 -7.8 -11.2 -7.8 -22.9 0 -7.5 0.7 -9.7 3.5 -11.2 2.1 -1.1 2.3 -2.1 2.8 -11.4 0.9 -17.2 5.1 -26 15.7 -32.4 7.9 -4.7 12 -5.6 26 -5.6 19.5 -0.1 30.1 4.4 36.8 15.5 4.1 6.8 5 10.1 6 22.5 0.8 8.9 1.2 10.3 3.5 12.6 2.4 2.4 2.7 3.5 2.7 9.5 0 12.3 -3.8 23.3 -7.9 23.3 -1.5 0 -2.4 1.6 -4.1 6.8 -4.5 14.1 -12.6 24.5 -23.5 29.7 -4.3 2.1 -4.6 2.4 -2.3 2.5 3.6 0 5.8 4.2 5.8 11.1 0 4.4 -0.4 5.5 -3.2 8.3 l-3.3 3.3 1.8 13.9 c1.1 7.6 2.2 14.3 2.7 14.7 1 1.1 5.4 -11.9 8 -23.8 1.1 -4.9 2.3 -14.7 2.6 -21.7 0.7 -12.7 0.7 -12.8 3.2 -12.8 1.3 0 5.8 1.6 9.9 3.6 4.2 1.9 14.5 6.2 23.1 9.5 8.6 3.3 17.5 7.1 19.8 8.4 7.2 4.2 8.1 6.3 10.4 24.4 2.6 20.5 2.6 29.2 0.3 31.3 -1 0.8 -7 4.8 -13.3 8.9 -15.3 9.8 -37.9 21.2 -57.2 28.7 -20.7 8.1 -22.3 8.1 -41.3 0.6z"/>
  <path d="M249.5 785 c-16.3 -2.6 -38.2 -11.4 -51.4 -20.7 -20.7 -14.6 -37.2 -36.6 -45.1 -60.1 -14.6 -43.7 -2.8 -91.5 30.7 -123.3 10.1 -9.6 17.7 -14.7 31.7 -21.5 17.4 -8.3 27.4 -10.4 54.1 -11.3 23.8 -0.7 25.3 -1 32.7 -7.1 1.9 -1.6 5.5 -6.2 7.8 -10.2 15.9 -27 35.9 -60.6 72.9 -122.6 14 -23.3 26 -44.5 26.8 -47 2.7 -8.7 1.4 -14.5 -7.1 -31.5 -13.8 -27.7 -17.4 -51.4 -12 -79.7 12.7 -67.2 82.3 -111 149.1 -94 33.3 8.6 62.2 31.2 77.6 60.9 10.3 19.7 14.2 35.4 14.1 57.1 0 20.3 -3.2 33.8 -12.6 52.9 -14.5 29.5 -42.9 53.2 -74.9 62.4 -13.4 3.9 -25.8 5 -47.6 4.2 -14 -0.5 -20.3 -0.3 -23 0.5 -6.3 2.1 -11.8 7 -16.6 15 -2.5 4.1 -10.6 17.6 -18 30 -7.3 12.4 -26.8 45 -43.3 72.5 -16.4 27.5 -30.7 52.5 -31.7 55.5 -3.6 10.8 -0.6 27.2 7.1 38.2 5.6 7.9 16.4 16.9 25 20.5 11.4 4.8 8.3 4.7 101.2 5.3 l87.5 0.5 0.3 8.5 c0.3 12.1 3 40.3 4.7 50.1 0.8 4.6 1.5 9 1.5 9.7 0 0.9 -19.9 1.2 -96 1.2 -63.9 0 -97.6 0.4 -100.9 1.1 -9 1.9 -13.2 5.5 -19 16.4 -7.4 13.9 -12.3 20.8 -21.9 30.7 -16.6 17.2 -38.3 29.2 -62.4 34.4 -8.7 1.9 -32.9 2.7 -41.3 1.4z m34.9 -61 c17.4 -5 32.7 -19.5 39.6 -37.5 1.7 -4.6 2.4 -8.7 2.7 -17.5 0.8 -19.7 -3.5 -31 -17.2 -44.5 -12.5 -12.5 -25.2 -17.8 -42.5 -17.9 -9.3 0 -16.7 1.4 -24.7 5 -17.8 7.8 -31.7 24.8 -35.3 43.2 -1.7 8.4 -0.7 22.9 2 30.9 7.2 20.7 27.2 37.2 49.5 40.7 5.6 0.8 19 -0.4 25.9 -2.4z m239.9 -390.6 c16.7 -3.8 33.3 -16.3 40.8 -30.9 6.2 -11.9 7.4 -16.6 7.3 -29.5 0 -9.9 -0.4 -12.6 -2.7 -19.3 -10.5 -30.3 -41.7 -47.9 -73 -41.2 -12.1 2.5 -21.1 7.6 -30.7 17.4 -13.2 13.3 -18.5 25.9 -18.4 43.6 0 16.9 5.7 29.9 18.8 43.1 6.3 6.3 9.9 9 15.8 11.8 13.5 6.5 27.9 8.2 42.1 5z"/>
  <path d="M640.6 533.5 c-0.9 -1.3 -8.5 -13.8 -17 -27.7 -8.4 -13.9 -22.7 -37.2 -31.6 -51.8 -25.5 -41.4 -27.2 -44.2 -26.3 -45 0.4 -0.4 2.9 -1.4 5.4 -2.3 10.5 -3.9 32.8 -18.2 43.6 -28.1 3 -2.7 5.5 -4.7 5.7 -4.5 0.1 0.2 2.9 4.7 6.1 9.9 9.3 15.2 15.7 25.5 25.2 41 5 8 17.2 28 27.3 44.5 10.1 16.5 20.3 33 22.7 36.7 l4.3 6.8 -6.2 3.1 c-13.3 6.7 -50.3 19.9 -55.8 19.9 -1 0 -2.5 -1.1 -3.4 -2.5z"/>
 </g>
 <g fill="#f88f08">
  <path d="M651.6 755.3 c-14.1 -28.2 -22.8 -62.8 -25.6 -101.8 -0.5 -7.7 -1 -16.4 -1 -19.4 l0 -5.4 3.8 0.7 c2 0.4 9.8 1.1 17.2 1.6 7.4 0.5 15.6 1.2 18.3 1.6 3.3 0.5 4.7 0.3 4.7 -0.5 0 -0.8 2.6 -1.1 8.8 -1 7.5 0.2 15.7 -0.8 22.5 -2.7 1 -0.3 2.9 -1.6 4.2 -3 1.8 -1.7 3.5 -2.4 6.5 -2.4 l4 0 0 4.5 c0 5.5 1.8 14.1 3.7 17.8 0.8 1.6 2.6 3.3 4.1 3.8 2.2 0.8 3.1 2.3 5.1 8.2 3.1 9.6 6.1 14.4 12.4 20.5 7.4 6.9 12.7 9.4 20.2 9.5 14.3 0.1 27.3 -12.1 33.5 -31.5 1.7 -5.2 2.6 -6.8 4.1 -6.8 2.5 0 4.9 -3.9 6.5 -10.8 2.1 -9 1.8 -12.9 -1.2 -15.9 -1.8 -1.8 -2.8 -4.1 -3.2 -7 -0.4 -4 -0.3 -4.3 1.9 -4.3 2.6 0 4.9 3.6 4.9 7.7 0 1.4 0.6 2.3 1.5 2.3 0.8 0 1.5 0.5 1.5 1.2 0 0.6 0.7 0.4 1.8 -0.5 1.6 -1.5 4.8 -1.7 24.1 -1.7 18.9 0 22.5 -0.2 24.7 -1.6 2 -1.4 3.9 -1.6 10.2 -1 4.2 0.4 11.2 0.9 15.6 1.3 l7.9 0.6 -0.6 23.1 c-0.6 24.4 -2.3 39.1 -7.2 61.1 -4 18.3 -14 46.5 -16.4 46.5 -0.5 0 -1.2 -1.8 -1.6 -3.9 -0.7 -4.4 -0.2 -4.4 -9.7 -0.2 -3.7 1.6 -3.8 1.7 -3.8 7.4 l0 5.7 -3.2 0 c-2.5 0 -2.9 -0.3 -2 -1.2 1.7 -1.7 1.5 -6.3 -0.8 -24.9 -2.3 -18.1 -3.2 -20.2 -10.4 -24.4 -2.3 -1.3 -11.2 -5.1 -19.8 -8.4 -8.6 -3.3 -18.8 -7.5 -22.6 -9.3 l-6.9 -3.3 -0.6 12.1 c-1 18.5 -5.5 37.2 -12.4 50.8 l-3 6 -0.6 -3.5 c-0.4 -1.9 -1.8 -11.4 -3.2 -21.3 -1.4 -9.8 -2.8 -18.2 -3.1 -18.7 -0.4 -0.8 -10.4 -1.4 -10.4 -0.6 0 2 -6.1 43.1 -6.5 43.5 -0.7 0.8 -7 -13.6 -9.8 -22.4 -3.1 -9.8 -5.5 -23.9 -6.4 -36.6 l-0.6 -9.7 -5.6 2.8 c-3.1 1.6 -13.8 5.9 -23.9 9.6 -18.1 6.7 -24.7 10.2 -27.8 15 -1.5 2.3 -4.3 19.5 -5.7 34.9 -0.6 5.7 -0.5 6 2.9 9.4 1.9 1.9 3.4 3.6 3.4 3.8 0 0.9 -6.9 0.3 -7.5 -0.6 -0.3 -0.5 -1.5 -1 -2.6 -1 -1.1 0 -1.9 -0.7 -1.9 -1.6 0 -2.5 -2.8 -4.6 -5 -3.9 -1.6 0.5 -1.8 1 -1 2.5 1.3 2.4 1.3 8 0 8 -0.5 0 -3.4 -4.8 -6.4 -10.7z m119.5 -48.1 c3.2 -3.6 3.6 -6 1.4 -10.1 -1.7 -3.4 -7.2 -4.6 -15.4 -3.5 -8.8 1.1 -10.9 7.8 -4.6 14.1 3.4 3.4 3.7 3.5 9.7 3.1 5.3 -0.4 6.5 -0.9 8.9 -3.6z"/>
 </g>
 <g fill="#fba505">
  <path d="M893 653.5 c0 -1.4 -0.4 -2.5 -1 -2.5 -0.5 0 -1 -0.9 -1 -2 0 -1.1 0.7 -2 1.5 -2 1.1 0 1.5 1.2 1.5 4.5 0 2.5 -0.2 4.5 -0.5 4.5 -0.3 0 -0.5 -1.1 -0.5 -2.5z"/>
  <path d="M635.7 645.3 c-1.3 -1.2 -0.7 -2.3 1.3 -2.3 1.2 0 2 -0.7 2 -1.6 0 -1.1 0.5 -1.4 1.6 -1 0.9 0.3 2.2 0.6 3 0.6 0.8 0 1.4 0.5 1.4 1 0 0.6 -1.1 1 -2.5 1 -1.4 0 -2.8 0.7 -3.1 1.5 -0.6 1.6 -2.6 2 -3.7 0.8z"/>
  <path d="M625.2 621.5 c-0.1 -12.1 0.1 -25.7 0.4 -30.1 l0.7 -8.2 5.5 -1.1 c8.3 -1.7 39.8 -11.5 55.2 -17.3 23.2 -8.6 45.8 -19.2 68.7 -31.9 l4.1 -2.4 3.9 2.1 c2.1 1.2 6.5 3.6 9.8 5.5 20.6 11.3 49.2 23.7 74.5 32.2 18.5 6.3 40.3 12.7 42.9 12.7 1.5 0 1.9 1.3 2.5 7.7 0.3 4.2 0.6 12.9 0.6 19.3 l0 11.8 -3.7 0.4 c-2.1 0.3 -8.4 -0.2 -14 -1 -9.3 -1.3 -10.5 -1.3 -12.7 0.2 -2 1.2 -5.2 1.6 -14.3 1.7 -9.1 0.1 -11.1 0.3 -8.8 1 2.7 0.9 14.9 0.5 23 -0.7 2.5 -0.4 2.6 -0.3 1 0.5 -1.1 0.5 -3.6 1 -5.6 1 -1.9 0.1 -3.9 0.5 -4.5 1 -1.2 1.2 -17.1 2.9 -21.3 2.3 -1.8 -0.2 -3.5 -1.1 -3.8 -1.8 -0.3 -0.8 -1.7 -1.5 -3.2 -1.6 -1.4 -0.1 0.1 -0.4 3.4 -0.8 5.6 -0.6 5.3 -0.7 -3.7 -0.8 l-9.7 -0.2 -2.5 3.2 c-2.4 3.1 -2.5 3.2 -4.5 1.4 -1.9 -1.7 -2 -1.7 -2.4 0.1 -0.2 1 -0.4 0.6 -0.3 -0.8 0.2 -1.9 -0.6 -3.2 -2.6 -4.5 -3 -2 -3.3 -3.2 -4.3 -15.4 -0.7 -9.8 -1.8 -13.4 -5.7 -19.9 -6.3 -10.4 -17.5 -15.5 -33.8 -15.5 -11.1 0.1 -15.5 1.1 -23 5.6 -10.6 6.4 -14.8 15.2 -15.7 32.4 -0.5 9.4 -0.7 10.3 -2.9 11.5 -1.5 0.7 -2.6 2.5 -3 4.6 -0.6 3.3 -3.4 4.8 -3.4 1.8 0 -2 -1.9 -1.9 -3.9 0.3 -2.8 3 -6.5 4.9 -10.1 5 -1.9 0.1 -6.4 0.8 -10 1.6 -4.4 0.9 -7.3 1 -9.2 0.4 -1.5 -0.5 -3.7 -0.8 -5 -0.5 -1.7 0.3 -1.5 0.5 1 0.6 2.2 0.1 3.2 0.6 3.2 1.7 0 1 -0.6 1.4 -1.7 1.1 -5.2 -1.4 -11.1 -2 -22.8 -2 -9.8 0 -11.5 -0.2 -7 -0.7 5.8 -0.6 5.8 -0.7 -3 -0.9 -5 -0.1 -10.9 -0.6 -13.2 -1 l-4.2 -0.8 -0.4 5.6 c-0.2 3.1 -0.4 -4.3 -0.5 -16.4z m177.5 -5 c-0.9 -1.9 -1.3 -2.1 -1.5 -0.9 -0.3 1.3 1.2 3.3 2.5 3.4 0 0 -0.4 -1.1 -1 -2.5z"/>
  <path d="M714 640 c0 -0.5 0.7 -1 1.5 -1 0.8 0 1.5 0.5 1.5 1 0 0.6 -0.7 1 -1.5 1 -0.8 0 -1.5 -0.4 -1.5 -1z"/>
  <path d="M713 636.1 c0 -0.5 0.7 -1.1 1.5 -1.5 0.9 -0.3 1.5 0 1.5 0.9 0 0.8 -0.7 1.5 -1.5 1.5 -0.8 0 -1.5 -0.4 -1.5 -0.9z"/>
 </g>
 <g fill="#f06d0f">
  <path d="M744.5 841.7 c-25.4 -12.4 -44.3 -25.5 -60.7 -42 -13.4 -13.5 -26.1 -30.9 -28.8 -39.2 -0.7 -2.2 -1.7 -4.9 -2.3 -6 -0.5 -1.1 -0.6 -1.7 -0.2 -1.3 0.4 0.4 2 0.1 3.6 -0.7 2.8 -1.5 8.9 -1.1 8.9 0.6 0 0.5 1 0.9 2.3 1 1.2 0 1.6 0.3 1 0.6 -1.9 0.7 -1.6 3.3 0.5 3.4 0.9 0 4.7 1.9 8.4 4.2 19 11.8 28.5 17.2 40.8 23 16.9 8 38.9 16.7 42.4 16.7 4.1 0 32.5 -11.5 49.1 -19.9 14.4 -7.3 35.5 -20.1 40.3 -24.4 2.1 -2 2.2 -2.7 1.8 -10.7 -0.4 -5.5 -0.3 -7.6 0.3 -6 0.5 1.4 0.9 2 1 1.4 0.1 -0.6 1.3 -1.6 2.7 -2.3 2.2 -1 2.6 -0.9 2.1 0.3 -0.5 1.2 0 1.2 2.6 0.4 7 -2.2 10.4 -2.5 12.2 -1.1 1.7 1.2 1.7 1.3 0.2 1.3 -0.9 0 -1.7 0.5 -1.7 1 0 0.6 0.5 1 1 1 1.8 0 1.1 2.5 -3.4 11.6 -12.6 25.8 -33 48.9 -59.6 67.5 -14.9 10.5 -44.2 25.9 -49.2 25.9 -1.3 0 -8.1 -2.9 -15.3 -6.3z"/>
 </g>
</svg>